<svg id="Layer_1" data-name="Layer 1" xmlns="http://www.w3.org/2000/svg" width="1920" height="1080" viewBox="0 0 1920 1080"><defs><style>.cls-1{fill:#92272d;}.cls-2{fill:#ffac60;}.cls-3{fill:#ab1300;}.cls-15,.cls-4{fill:#f2f2f2;}.cls-22,.cls-38,.cls-5{fill:#c1272d;}.cls-6{fill:#ccc;}.cls-7{fill:#001300;}.cls-8{fill:#eba36b;}.cls-9{fill:#f9b57e;}.cls-10{fill:#ffb4dc;}.cls-11{fill:#42210b;}.cls-12{fill:#9c272d;}.cls-13{fill:#fbb03b;}.cls-14{fill:#fcee21;}.cls-15{stroke:#ccc;stroke-miterlimit:10;}.cls-16{fill:#bf272d;}.cls-17{fill:#c2272d;}.cls-18{fill:#0071bc;opacity:0.51;}.cls-19{fill:#29abe2;}.cls-20{fill:#8f272d;}.cls-21{fill:#bb272d;}.cls-22{font-size:55.95px;}.cls-22,.cls-38{font-family:MarkerFelt-Thin, Marker Felt;font-weight:200;}.cls-23{letter-spacing:0.04em;}.cls-24{letter-spacing:0.02em;}.cls-25{letter-spacing:0.06em;}.cls-26{letter-spacing:0.04em;}.cls-27{letter-spacing:0.05em;}.cls-28{letter-spacing:0em;}.cls-29{letter-spacing:0.03em;}.cls-30{letter-spacing:0em;}.cls-31{letter-spacing:0.06em;}.cls-32{letter-spacing:0.05em;}.cls-33{letter-spacing:0.03em;}.cls-34{letter-spacing:0.05em;}.cls-35{letter-spacing:0.02em;}.cls-36{letter-spacing:0.02em;}.cls-37{letter-spacing:0.06em;}.cls-38{font-size:60.06px;}.cls-39{letter-spacing:0.03em;}.cls-40{letter-spacing:0.03em;}.cls-41{letter-spacing:0.06em;}.cls-42{letter-spacing:0.05em;}.cls-43{letter-spacing:0.02em;}.cls-44{letter-spacing:0.03em;}.cls-45{letter-spacing:0.04em;}.cls-46{letter-spacing:0em;}.cls-47{letter-spacing:0.06em;}.cls-48{letter-spacing:0.03em;}.cls-49{letter-spacing:0.03em;}.cls-50{letter-spacing:0.04em;}.cls-51{letter-spacing:0.04em;}</style></defs><rect class="cls-1" x="-0.49" y="0.49" width="1920" height="1080"/><path class="cls-2" d="M508.11,572.58c-135.06,19.18-255.34-41.27-268.66-135S302.53,95.37,437.59,76.19,715.21,274.32,728.53,368.07,643.16,553.39,508.11,572.58Z"/><path class="cls-3" d="M618.62,87.52C580.11,13.68,486.3,29.6,486,53.91s159.81,97.26,182.05,122.81c-74.82,21.61-149,47.22-226.83,60.17s-140,35.71-215.41,58.44c26.13-86.65,15-130.8,73.66-219.25S659.51-104,618.62,87.52Z"/><path class="cls-4" d="M579.71,91h0a17.41,17.41,0,0,1,0-26.35h0a17.55,17.55,0,0,0,6-13.18V51a18,18,0,0,1,18.19-17.72h4.62a18.47,18.47,0,0,0,12.17-4.55l3.71-3.25a18.55,18.55,0,0,1,24.33,0l3.71,3.25a18.47,18.47,0,0,0,12.17,4.55h4.62A18,18,0,0,1,687.46,51v.48a17.54,17.54,0,0,0,6,13.18h0a17.41,17.41,0,0,1,0,26.35h0a17.57,17.57,0,0,0-6,13.18v.49a18,18,0,0,1-18.2,17.72h-4.62a18.51,18.51,0,0,0-12.17,4.54l-3.71,3.26a18.55,18.55,0,0,1-24.33,0l-3.71-3.26a18.51,18.51,0,0,0-12.17-4.54h-4.62a18,18,0,0,1-18.19-17.72v-.49A17.58,17.58,0,0,0,579.71,91Z"/><path class="cls-5" d="M429.34-4.18a243.1,243.1,0,0,0-86.07,51.67A233.8,233.8,0,0,0,311.11,84.3a214.55,214.55,0,0,0-23,41.88,190.52,190.52,0,0,0-12.42,45.25q-.42,2.94-.75,5.9c-.21,1.92,2.79,1.9,3,0a186.88,186.88,0,0,1,10.88-44.8,208.39,208.39,0,0,1,21.45-41.7,228.73,228.73,0,0,1,30.75-37A240.25,240.25,0,0,1,424.2.85q3-1.11,5.94-2.13c1.81-.63,1-3.53-.8-2.9Z"/><path class="cls-6" d="M629.6,44.59c2.63-5,10.26-5.6,13.65-1.06.88,1.18,1.4,2.58,2.36,3.72a7.35,7.35,0,0,0,3.12,2.14c2.4.89,5.09.63,7.6.53s5.32-.27,7.39,1.33a5.35,5.35,0,0,1,2,5.88,22.86,22.86,0,0,0-1.51,3.53,5.46,5.46,0,0,0,.91,4.07c1.58,2.36,4.15,3.53,6.57,4.81a8.88,8.88,0,0,1,3.63,2.83,5.24,5.24,0,0,1,.39,4.26c-.95,3.28-4,5.56-6.55,7.61-1.5,1.22.64,3.33,2.13,2.12,2.6-2.11,5.36-4.36,6.77-7.49a8.48,8.48,0,0,0-.58-8.63c-2-2.62-5.22-3.46-7.84-5.24a5.28,5.28,0,0,1-2.49-3c-.29-1.5,1.16-3,1.56-4.38A8.26,8.26,0,0,0,666.74,50a10.17,10.17,0,0,0-7.49-3.12c-2.8-.13-5.72.51-8.49,0a4.92,4.92,0,0,1-3.27-2.07c-1-1.4-1.58-2.94-2.81-4.15-5-5-14.29-4-17.67,2.45-.9,1.7,1.69,3.22,2.59,1.51Z"/><path class="cls-4" d="M231.27,277.83c2.52-5,24.66-45.36,74.29-31.94,8.32,2.24,18.87-.86,23.15-6.78,9.07-12.56,27.59-28.62,59.65-18.73,7.7,2.38,17.77.06,22.85-5.28,12.14-12.74,35-31.24,59.91-23,7.38,2.43,17.32.25,22.72-4.77,15.77-14.7,48.68-37.57,92.78-26.6a24.66,24.66,0,0,0,11.21,0c23.15-5.18,102.95-19.83,57.31,36.61a9.31,9.31,0,0,0-2.09,4.64c-1.17,9.27-8.88,42.37-59.41,32.15-9-1.83-19.6,2.12-22.84,8.48-6.77,13.31-25,30.09-74.35,19.82-8.62-1.8-18.92,1.76-22.51,7.8-9,15.09-32.22,36.95-88.74,20.86-8.18-2.33-18.67.59-23.2,6.4-11.66,15-37.33,36.29-78.7,11.71-4.41-2.62-11.13-3.17-17.27-1.31-21.18,6.39-66,16-35.42-28.91A7.91,7.91,0,0,0,231.27,277.83Z"/><path class="cls-6" d="M246.8,273.69a45.21,45.21,0,0,1,16.42-11.83c7.07-3,14.73-3.81,22.34-3.59a133.44,133.44,0,0,1,13.68,1.25c.81.11,1.5-.77,1.5-1.5a1.53,1.53,0,0,0-1.5-1.5c-8.24-1.11-16.6-1.83-24.89-.71a47.71,47.71,0,0,0-29.67,15.76c-1.27,1.44.84,3.57,2.12,2.12Z"/><path class="cls-6" d="M340.3,245.77c3.48-1.77,5.72-5,8.2-7.85a17.82,17.82,0,0,1,4.32-3.9,20.63,20.63,0,0,1,6.53-2.23c10.07-2,20.47-.62,30.54.67,1.91.24,1.89-2.76,0-3-8.14-1-16.36-2.09-24.57-1.47A39.77,39.77,0,0,0,354,230.17a19.28,19.28,0,0,0-7.72,5.77c-2.25,2.64-4.3,5.62-7.47,7.24-1.72.88-.2,3.47,1.51,2.59Z"/><path class="cls-6" d="M421.51,219.7a44.7,44.7,0,0,1,17.14-13.93c7.66-3.55,16.1-4.42,24.46-4.09,5.06.21,10.1.8,15.13,1.4,1.91.23,1.89-2.78,0-3-9.29-1.11-18.67-2.16-28-.81a47.14,47.14,0,0,0-22,9.35,47.71,47.71,0,0,0-9.31,9.57c-1.14,1.56,1.46,3.05,2.59,1.51Z"/><path class="cls-6" d="M504.35,193.84c7.52-5.73,15.1-11.47,23.41-16a63.66,63.66,0,0,1,27.49-8.28c10.8-.54,21.63,1,32.44,1.19A268.14,268.14,0,0,0,620,169.43c6-.6,11.9-1.44,17.83-2.37,2.64-.41,5.74-.83,8.22.42,1.91,1,3.54,3,2.94,5.26a1.5,1.5,0,0,0,2.89.79c1.21-4.41-2.41-8.46-6.54-9.47a20.33,20.33,0,0,0-7.85,0c-2.8.42-5.59.88-8.39,1.26a263.91,263.91,0,0,1-34.06,2.4q-8.46.06-16.91-.41c-5.68-.32-11.36-.83-17-.92a69.36,69.36,0,0,0-16.39,1.5A66.77,66.77,0,0,0,531,172.79c-10.18,4.81-19.23,11.66-28.15,18.46-1.51,1.16,0,3.77,1.52,2.59Z"/><path class="cls-4" d="M528.7,340.52c-11.77,5.34-30.51-4.71-36.75-17.71-6.72-14-1.16-35.79,11-41s30.7,6.48,36.17,20.75C544,315.34,540.38,335.23,528.7,340.52Z"/><path class="cls-4" d="M661,294.84c-10.1,4.59-26.92-5.71-32.91-18.31-6.45-13.54-2.46-34.06,7.95-38.48s27.15,7.4,32.52,21.17C673.36,271.53,671,290.28,661,294.84Z"/><path class="cls-7" d="M532.4,338.78c-9.77,4.4-24.27-1.54-28.55-10.27-4.59-9.37,1.14-24.94,11.18-29.25s24.33,2.76,27.91,12.41C546.15,320.3,542.11,334.4,532.4,338.78Z"/><path class="cls-7" d="M665.92,293.4c-9,4-22.3-1.51-26.26-9.59-4.25-8.68,1-23.07,10.17-27s22.35,2.64,25.67,11.58C678.48,276.36,674.82,289.4,665.92,293.4Z"/><ellipse class="cls-4" cx="530.89" cy="311.19" rx="5.62" ry="5.7"/><ellipse class="cls-4" cx="527.42" cy="323.7" rx="4.09" ry="4.21"/><path class="cls-8" d="M488,317.18s-2-12.69,20.81-21.65,30,1.71,30,1.71C533,282.5,517,275,502.92,280.52S482.2,302.44,488,317.18Z"/><path class="cls-8" d="M622.25,271.32s-1.91-11.8,19.16-20.06,27.72,1.67,27.72,1.67c-5.38-13.72-20.23-20.72-33.18-15.64S616.87,257.6,622.25,271.32Z"/><path class="cls-8" d="M813.07,290.32c2.73,48.29-61,67.61-95.5,71.36s-144.32-4.15-122.82-43.4,76.89-81,124.15-101.39S810.34,242,813.07,290.32Z"/><path class="cls-9" d="M710.37,238.46s9.33-12.57,45.6-1.89,37.2,26.27,37.2,26.27c3.55-11.83-12.1-26.89-35-33.62S713.92,226.63,710.37,238.46Z"/><ellipse class="cls-10" cx="515.01" cy="364.99" rx="33.5" ry="13.5" transform="matrix(0.96, -0.27, 0.27, 0.96, -80.25, 154.93)"/><path class="cls-9" d="M519.56,281a27.2,27.2,0,0,0-16.18,1.09,1.54,1.54,0,0,0-1,1.84,1.5,1.5,0,0,0,1.84,1.05,24.48,24.48,0,0,1,14.58-1.09c1.88.45,2.68-2.44.8-2.89Z"/><path class="cls-9" d="M651.52,238.65a35.13,35.13,0,0,0-12.38-1,1.54,1.54,0,0,0-1.5,1.5,1.51,1.51,0,0,0,1.5,1.5,32.71,32.71,0,0,1,11.58.87c1.87.49,2.67-2.41.8-2.89Z"/><path class="cls-5" d="M477.54,1219.11c-163.48-8.42-290.14-129-282.91-269.44S352.34,467.42,515.81,475.83,793.86,839.77,786.63,980.15,641,1227.53,477.54,1219.11Z"/><path class="cls-11" d="M204.93,883.73s319.13,134.09,581.35,62.43l.35,34-1.25,14.67-2.2,14.48S348,1038.75,196.27,931.12l2.27-18.18,3.28-18.69Z"/><path class="cls-12" d="M524.82,900.23C541,950.64,481.48,973.76,407.36,924c-117.07-78.6-127.71-185.48-101.5-224.52,31.66-47.15,136.8-22.21,125.7,89.53C426.64,838.39,511.49,858.71,524.82,900.23Z"/><path class="cls-4" d="M467.89,950.17c-.53-3.44-2.83-23.37,15.62-21.14a2.92,2.92,0,0,0,3.24-2.8c.23-5.46,2.22-15.75,13.89-17.51A10.25,10.25,0,0,0,509,901.2c1.53-5.82,5.37-12.34,15-8.63a3,3,0,0,0,1.77.15c3.58-.84,16.84-3.35,17.47,5.53a3.09,3.09,0,0,0,.33,1.24c1.55,3,7.89,16.5-5.11,17.58a2.68,2.68,0,0,0-2.42,3.37c1.26,4.43,1.81,11.6-8,11.2a2.94,2.94,0,0,0-3.07,2.9c-.06,5.53-1.57,15.89-12.44,12.85a3.07,3.07,0,0,0-3.83,2.28c-1.11,4.91-4.34,12.7-13.42,7.4a2.89,2.89,0,0,0-2.95,0c-4.21,2.59-16.51,8.4-24.21-6A2.84,2.84,0,0,1,467.89,950.17Z"/><path class="cls-13" d="M668.52,965.47l31.39-2.88,30.19-4.22,19.66-3.6s11.26,38.75,0,56.24l-24.79.88-21.25.54H666.26S656.54,983.46,668.52,965.47Z"/><path class="cls-11" d="M684.51,977.49s42,1,48-5c0,0,5,19.38,0,22.19,0,0-33,11.38-48,5.59C684.51,1000.27,680.51,986.49,684.51,977.49Z"/><path class="cls-2" d="M507,954.77l1.77-5.1.65-1.31,1.47-1h1.71l2.25.45,2.1.07,2.29-.52,2-1.22L523,944l.86-1.84.71-2.53.35-2.25.14-1.89.25-2.08.85-1.12,2-.68,2,0,2.32-.42,1.67-.75,1.28-1.13.95-1.68.38-1.64,0-2.07v-1.56l-.65-1.92V919l.65-1.12.71-.53,1.06-.31,2.24-.35,2.14-.77,1.46-1,1.12-1.31s22.06-10.16,33.06,4.84c0,0,7,7.89,0,12.94,0,0,4,8.06-3,9.06,0,0,5,8-3,10,0,0,4,8-3.5,10,0,0,3.5,8-4.5,10,0,0-12,10.29-37,4.15,0,0-9-3.15-12-12.15C515.51,962.49,512.51,956.06,507,954.77Z"/><path class="cls-8" d="M578.93,930.71a6.25,6.25,0,0,0-3.84-2.74c-1.82-.6-3.69-1.08-5.56-1.51a75.8,75.8,0,0,0-11.79-1.71c-1.93-.13-1.92,2.87,0,3A69.47,69.47,0,0,1,568,929.19q2.5.54,5,1.26c1.16.34,2.77.61,3.4,1.77.91,1.71,3.5.19,2.59-1.51Z"/><path class="cls-8" d="M575.56,939.45c-1.85-2.81-5.41-3.26-8.47-3.81a37.54,37.54,0,0,0-11.53-.61,1.54,1.54,0,0,0-1.5,1.5,1.51,1.51,0,0,0,1.5,1.5,33.7,33.7,0,0,1,10,.37c1.51.26,3,.52,4.53.92A4.62,4.62,0,0,1,573,941c1,1.6,3.65.1,2.59-1.52Z"/><path class="cls-8" d="M572,947.88a95,95,0,0,0-20.49-1.18c-1.92.1-1.94,3.1,0,3a90.77,90.77,0,0,1,19.69,1.07c1.89.32,2.7-2.57.8-2.89Z"/><path class="cls-8" d="M568.16,959.4a68.2,68.2,0,0,0-25-.83c-1.9.29-1.1,3.18.8,2.89a64.4,64.4,0,0,1,23.44.83c1.88.42,2.68-2.47.79-2.89Z"/><ellipse class="cls-13" cx="701" cy="762.1" rx="7.51" ry="7.62"/><ellipse class="cls-13" cx="730.18" cy="814.03" rx="7.51" ry="7.62"/><ellipse class="cls-13" cx="753.18" cy="866.03" rx="7.51" ry="7.62"/><ellipse class="cls-13" cx="763.18" cy="923.03" rx="7.51" ry="7.62"/><path class="cls-14" d="M701.22,758.34l.16,0-.4,0a4.44,4.44,0,0,1,1,0l-.4-.06a4.79,4.79,0,0,1,1,.28l-.36-.15a4.57,4.57,0,0,1,.89.51l-.3-.23c.13.1.25.21.37.32a1.56,1.56,0,0,0,1.06.44,1.5,1.5,0,0,0,1.5-1.5,1.54,1.54,0,0,0-.44-1.06,5.5,5.5,0,0,0-5-1.47,1.47,1.47,0,0,0-.89.69,1.49,1.49,0,0,0-.15,1.15,1.46,1.46,0,0,0,.69.9,1.63,1.63,0,0,0,1.15.15Z"/><path class="cls-14" d="M730.2,810.65a6,6,0,0,1,1.34,0l-.4-.05a2.42,2.42,0,0,1,.53.13l-.36-.15a2.71,2.71,0,0,1,.37.21l-.31-.23a5.15,5.15,0,0,1,.65.67,3.12,3.12,0,0,0,1.31.83,1.5,1.5,0,1,0,.8-2.89l-.13,0,.36.15a1.38,1.38,0,0,1-.24-.14l.3.23a6,6,0,0,1-.61-.62,3.06,3.06,0,0,0-1-.75,3.92,3.92,0,0,0-1.58-.36,7.17,7.17,0,0,0-1,.07,1.27,1.27,0,0,0-.58.13,1.11,1.11,0,0,0-.48.31,1.52,1.52,0,0,0-.44,1.06,1.54,1.54,0,0,0,.44,1.07,1.46,1.46,0,0,0,1.06.43Z"/><path class="cls-14" d="M752.8,862.34a8.62,8.62,0,0,1,2,.57l-.36-.15a3.49,3.49,0,0,1,.72.37l-.3-.23a1.07,1.07,0,0,1,.19.18l-.24-.3a.61.61,0,0,1,.07.1l-.16-.35a.36.36,0,0,1,0,.11l-.06-.4a.17.17,0,0,1,0,.07l0-.39,0,.11a1.47,1.47,0,0,0,.15,1.16,1.56,1.56,0,0,0,.9.69,1.54,1.54,0,0,0,1.15-.16l.3-.23a1.49,1.49,0,0,0,.39-.66l0-.1a2.32,2.32,0,0,0,.06-.45,2.26,2.26,0,0,0-.08-.53,2.22,2.22,0,0,0-.58-.92,4.36,4.36,0,0,0-1.27-.74,9.51,9.51,0,0,0-2.17-.64,1.18,1.18,0,0,0-.59,0,1.12,1.12,0,0,0-.56.18,1.52,1.52,0,0,0-.69.9,1.49,1.49,0,0,0,.15,1.15,1.45,1.45,0,0,0,.9.69Z"/><path class="cls-14" d="M763.61,919.23l.53,0-.4,0a3.37,3.37,0,0,1,.93.25l-.35-.15a3.65,3.65,0,0,1,.83.48l-.3-.24a4.5,4.5,0,0,1,.66.65l-.24-.3a2.8,2.8,0,0,1,.27.4,1.56,1.56,0,0,0,.9.69,1.54,1.54,0,0,0,1.15-.15,1.51,1.51,0,0,0,.69-.9,1.57,1.57,0,0,0-.15-1.16,5.2,5.2,0,0,0-4.52-2.55,1.59,1.59,0,0,0-1.06.44,1.47,1.47,0,0,0-.44,1.06,1.46,1.46,0,0,0,.44,1.06,1.48,1.48,0,0,0,1.06.44Z"/><path class="cls-4" d="M716.7,359.4,708,360.62a7.53,7.53,0,0,1-.83.08l-14.58.79-11,0h-.52l-11.35-.57-18.62-1.6L638,357.53l-9.8-1.78-11-2.59-.67-.19-9.13-2.85s-34-9.52-50.74,10.23a10.07,10.07,0,0,1-7.53,3.45c-7.23.15-20.85,2.09-28.91,13.75a9.8,9.8,0,0,1-8.92,4.3c-9.79-.91-28.76-1.85-37.56,3.16a9.62,9.62,0,0,1-10.32-.31c-11.13-7.8-35.25-20.32-53.33,1.53a10,10,0,0,1-13.15,2.07c-8-5.13-21.49-9.83-35.55,2.23a10,10,0,0,1-9.31,2c-6.69-2-18.06-3.52-23.61,6.19a10,10,0,0,1-7.35,5.06c-7.23.92-19,4.41-16.73,17.44a9.85,9.85,0,0,1-2,7.78c-5.31,6.65-14.24,21.43-.79,33.3a10,10,0,0,1,2.51,11.34c-4.85,11.79-11,34.91,9.72,44.57a9.93,9.93,0,0,1,4.72,13.41c-5.84,11.85-11.52,31,6.16,40.28a9.93,9.93,0,0,1,4.7,12.3c-7.67,20.34-20,68.71,30.16,81.25A9.89,9.89,0,0,1,366.65,678c-6.28,20.65-12.83,65.22,44.53,72a9.89,9.89,0,0,1,7.63,5.28c10,19.38,52.86,89.26,132.3,47.09a9.84,9.84,0,0,1,7.12-.82c17.59,4.59,91.94,20.32,99.29-39.33a9.84,9.84,0,0,1,9.17-8.59c22.65-1.47,81.53-10.85,71.62-68.86a9.82,9.82,0,0,1,6.18-10.91c20.55-7.7,72.07-33.14,48.44-88.52a10,10,0,0,1-.28-7.2c5.18-14.82,22-70.88-12.41-89.41a9.87,9.87,0,0,1-4.71-11.56c4.59-15.31,9.63-47.33-23.69-58.67A9.92,9.92,0,0,1,745.68,406c6.1-18.88,13.87-57.19-28-46.82C717.35,359.29,717,359.36,716.7,359.4Z"/><path class="cls-15" d="M335.8,316.86h0a16,16,0,0,1-5.71,1.85l-10.69,1.34A15.66,15.66,0,0,1,315,320l-8.92-1.38a15.52,15.52,0,0,1-3-.76l-9.1-3.27a15.54,15.54,0,0,1-2-.88l-7.33-3.84a17,17,0,0,0-2.79-1.14l-3.08-.93a16.05,16.05,0,0,0-6.24-.6l-5.17.52a15.7,15.7,0,0,0-2.62.49l-7.11,1.95c-.43.12-.86.21-1.3.3L244.2,312.7a14.9,14.9,0,0,1-2.66.27l-9.78.16s-48,2-39.52,38.05a16.18,16.18,0,0,1-6.5,17.15c-12.18,8.31-29,26-16.8,55.85a15.83,15.83,0,0,1-3.24,16.87c-18.25,19.17-58.51,71.57-8.46,119.25a15.92,15.92,0,0,1,2.09,2.4c5.95,8.41,43.68,56.2,101.22,4.27A15.89,15.89,0,0,1,273.43,563c12.42,1.76,37.4.87,44.08-32.54,5.85-29.25,7.13-43.15,4.4-49.88a15.65,15.65,0,0,1,3.17-16.34C336.72,451.55,352.13,428.64,342,404a15.9,15.9,0,0,1,5.5-18.79c10.57-7.79,22.13-24.55,11.32-59.14A16,16,0,0,0,335.8,316.86Z"/><path class="cls-6" d="M225.81,323.13c-6.23-2.52-13.3-.36-18.19,3.93C202,332,200,339.6,200.73,346.84a36.68,36.68,0,0,0,4,12.9c.9,1.71,3.49.19,2.59-1.52-3.93-7.54-5.68-17.51-1-25.13,3.78-6.1,11.7-9.87,18.62-7.07,1.79.72,2.57-2.18.8-2.89Z"/><path class="cls-6" d="M193.34,374.44c-6.09,2.61-9.59,8.64-11.31,14.78-2.13,7.62-2.07,16-1.13,23.76a80.76,80.76,0,0,0,3.18,14.73c.58,1.83,3.48,1.05,2.9-.8a76.58,76.58,0,0,1-3.63-24.64c.12-6.38.93-13.11,4.25-18.7a15.55,15.55,0,0,1,7.25-6.54c1.77-.76.25-3.34-1.51-2.59Z"/><path class="cls-6" d="M181,448.2a73.68,73.68,0,0,0-22.49,34.52A76.85,76.85,0,0,0,157.14,524c2,8.13,5.42,16.74,11.32,22.85,1.34,1.39,3.46-.73,2.12-2.12-5.11-5.3-8.08-12.65-10.05-19.64a71.13,71.13,0,0,1-2.59-19.74,75.4,75.4,0,0,1,10.65-38,68,68,0,0,1,14.5-17.06c1.48-1.24-.66-3.36-2.12-2.12Z"/><path class="cls-6" d="M339.49,331.48c2.93,11.73-1.49,24.6-10.32,32.7a31.32,31.32,0,0,1-8.57,5.58c-1.77.78-.24,3.36,1.51,2.59,12-5.31,20.1-17.73,21.18-30.7a34,34,0,0,0-.91-11c-.47-1.87-3.36-1.08-2.89.8Z"/><path class="cls-6" d="M312.63,403a52.36,52.36,0,0,1-3.43,45.8,48.89,48.89,0,0,1-8.34,10.6c-1.4,1.34.73,3.46,2.12,2.12,12.08-11.61,18-29.08,16-45.67a51.93,51.93,0,0,0-3.5-13.65c-.73-1.76-3.63-1-2.89.8Z"/><path class="cls-6" d="M763.75,503.63a52.74,52.74,0,0,1,4.72,47.59c-.71,1.8,2.19,2.58,2.89.8a55.18,55.18,0,0,0-5-49.9c-1.05-1.61-3.65-.11-2.59,1.51Z"/><path class="cls-6" d="M772.44,599.08c2.1,12.13-4.06,25-14.12,31.84a29.87,29.87,0,0,1-9.45,4.26c-1.87.47-1.07,3.37.8,2.89,13.14-3.33,23.36-15.16,25.66-28.41a33.14,33.14,0,0,0,0-11.37c-.33-1.9-3.22-1.1-2.89.79Z"/><path class="cls-6" d="M353.51,592.15a30.9,30.9,0,0,0-6.66,21.63A30.23,30.23,0,0,0,356.14,633a30.87,30.87,0,0,0,10.36,6.5c1.81.68,2.59-2.22.8-2.9a27.73,27.73,0,0,1-14.19-12.34,26.93,26.93,0,0,1-2.57-19.49,27.33,27.33,0,0,1,5.09-10.54c1.19-1.5-.92-3.63-2.12-2.12Z"/><path class="cls-6" d="M435,747.82c2.91,10.1,10.82,17.46,19.94,22.17,10.43,5.39,22.16,7.67,33.77,8.71a134.65,134.65,0,0,0,24.59-.05c1.9-.17,1.92-3.17,0-3a128.14,128.14,0,0,1-40.17-2.34c-9.61-2.18-19.4-6-26.71-12.79A29.7,29.7,0,0,1,437.93,747a1.5,1.5,0,0,0-2.9.79Z"/><path class="cls-6" d="M368.51,404.77c5-6.79,15.34-8.46,22.33-3.92,1.62,1,3.13-1.54,1.51-2.59-8.46-5.49-20.51-3.06-26.43,5-1.15,1.56,1.46,3.06,2.59,1.52Z"/><path class="cls-6" d="M416.38,400.31c7.3-8.61,20.6-11.05,30.43-5.43a1.5,1.5,0,0,0,1.51-2.59c-10.91-6.24-25.9-3.72-34.06,5.89-1.24,1.47.87,3.6,2.12,2.13Z"/><path class="cls-1" d="M314.53,657.59c-18.17,19.29-28.2,44.5-38.95,68.3q-9.15,20.26-18.3,40.54c-5.76,12.79-11.44,25.64-16.46,38.75a279,279,0,0,0-13.46,45.16c-.37,1.89,2.52,2.7,2.89.8,5.46-27.48,16.3-53.46,27.7-78.92,5.95-13.29,12-26.55,18-39.82,5.6-12.39,11-24.9,17.09-37.06,6.4-12.78,13.81-25.18,23.65-35.63,1.33-1.4-.79-3.53-2.12-2.12Z"/><path class="cls-16" d="M350.16,686.6c-11.67-3.72-24.22,1.94-32,10.75a57.94,57.94,0,0,0-9.65,15.89,117.67,117.67,0,0,0-6.21,19.1,73.31,73.31,0,0,0-2,24c.19,1.9,3.19,1.92,3,0-1.3-13.21,2-26.53,6.68-38.8,4.11-10.77,10.51-21.35,21.3-26.43a24.76,24.76,0,0,1,18-1.58c1.85.58,2.63-2.31.8-2.9Z"/><path class="cls-17" d="M431.86,831.8c4,9.54,13.22,15.16,22,19.81,4.72,2.49,9.54,4.82,14.1,7.62a93,93,0,0,1,27.57,26.08c1.1,1.57,3.7.07,2.59-1.52A97,97,0,0,0,473,858.9c-8.86-6-19.06-9.76-27.78-16a30.13,30.13,0,0,1-10.74-12.64,1.5,1.5,0,0,0-2.59,1.51Z"/><path class="cls-18" d="M486.57,384.83c-8.82-2.19-14.3-10.74-12.22-19.11s14.36-27.37,23.18-25.19,10.84,24.74,8.77,33.1S495.39,387,486.57,384.83Z"/><path class="cls-19" d="M497,345.82c-3.43-1.87-7.17.1-9.44,2.82-1.23,1.49-2.29,3.12-3.4,4.7l-3.54,5a1.51,1.51,0,0,0,.53,2.05,1.54,1.54,0,0,0,2.06-.54c2-2.83,3.92-5.71,6-8.49,1.32-1.79,3.84-4.33,6.29-3,1.7.92,3.21-1.67,1.52-2.59Z"/><path class="cls-20" d="M685.16,408.42c-8.12-4.69-17.44-6.31-26.67-7.12-9.48-.84-19-1.28-28.57-1.19a147.48,147.48,0,0,0-28.36,2.72,97.12,97.12,0,0,0-13.71,3.83c-2.2.79-4.36,1.68-6.48,2.64a16.65,16.65,0,0,0-5.52,3.45c-3,3.23-3,8.28-3.42,12.42a109.79,109.79,0,0,0-.76,13.07c.1,8.46,1.76,17.2,7,24.07A29.85,29.85,0,0,0,600,473.84a29.52,29.52,0,0,0,22.46-8.37c6.67-6.5,9.11-15.7,10.32-24.66a96.5,96.5,0,0,0-.74-30.29c-.45-2.48-1-4.95-1.66-7.39a1.5,1.5,0,0,0-2.89.8,94,94,0,0,1,3.06,28.44c-.41,8.8-1.6,18.52-6.33,26.16A26.16,26.16,0,0,1,584,463.78c-5.93-5.52-8.53-13.4-9.16-21.3a79,79,0,0,1,.11-12.21c.16-2.11.37-4.21.61-6.31a43.58,43.58,0,0,1,.87-6c1.13-4.37,5.75-5.85,9.53-7.36a93,93,0,0,1,12.75-4A130.75,130.75,0,0,1,625,403.21c9-.31,18,0,27,.61,8.72.55,17.6,1.27,25.84,4.39a40.29,40.29,0,0,1,5.85,2.81,1.5,1.5,0,0,0,1.51-2.6Z"/><path class="cls-20" d="M627.05,404.3a119.92,119.92,0,0,0-41.82,7.49,14.6,14.6,0,0,0-6,3.52c-2.16,2.43-2.57,5.91-2.87,9.16l-1.48,16a25.6,25.6,0,0,0,3,17.14,19.7,19.7,0,0,0,2.8,4.88,15.55,15.55,0,0,0,6.46,4,68.46,68.46,0,0,0,13.74,3.14,21.47,21.47,0,0,0,7.32.25c3.64-.71,6.64-3.2,9.48-5.6a21.36,21.36,0,0,0,4.6-4.8c1.94-3.12,2.24-7.13,4.59-9.94a34.21,34.21,0,0,0-3.43,9.55c1.61-.9,2.15-2.92,2.52-4.72,1.05-5.11,1.86-10.27,2.43-15.45l-1.71,10.59c2.09-3.17,2.29-7.18,2.43-11,.4-11,.78-22.08-1.53-32.82-.28-1.27-1.46-2.89-2.49-2.09"/><path class="cls-20" d="M627.05,402.8a122.17,122.17,0,0,0-33.3,4.62c-2.78.79-5.53,1.69-8.25,2.68a20.88,20.88,0,0,0-6.37,3.21c-3.93,3.23-4.07,8.68-4.5,13.34-.53,5.74-1.27,11.51-1.56,17.27A23.64,23.64,0,0,0,574,452a56.23,56.23,0,0,0,3,7.34,15.15,15.15,0,0,0,4.51,5.93,23.42,23.42,0,0,0,7,3.3,61.21,61.21,0,0,0,8.24,1.93,62,62,0,0,0,8.24,1.11c6,.22,10.42-3.35,14.69-7.06a17.56,17.56,0,0,0,4.94-6.4c1.06-2.49,1.58-5.37,3.3-7.53l-2.35-1.82a37,37,0,0,0-3.59,9.91,1.52,1.52,0,0,0,2.2,1.69c3-1.87,3.29-5.82,3.87-9,.76-4.14,1.36-8.31,1.83-12.49.19-1.67-2.67-2.07-2.94-.4l-1.71,10.59a1.51,1.51,0,0,0,2.74,1.16c2.22-3.52,2.48-7.69,2.63-11.73.18-4.78.34-9.56.29-14.35a105.2,105.2,0,0,0-1-14.18c-.29-2-.41-4.47-1.48-6.24-.87-1.44-2.46-2.39-4.05-1.43a1.5,1.5,0,0,0,1.51,2.59c-.46-.16-.52-.12-.19.14l.14.22a2.92,2.92,0,0,1,.38,1.07c.23,1,.41,2,.58,3,.31,1.9.54,3.82.72,5.74.35,4,.45,7.94.43,11.92s-.16,7.93-.31,11.89c-.14,3.38-.35,6.86-2.21,9.8l2.74,1.16,1.71-10.59-2.95-.4q-.6,5.38-1.55,10.73c-.3,1.67-.58,3.35-1,5a4.72,4.72,0,0,1-1.69,3.14l2.2,1.7a34.44,34.44,0,0,1,3.29-9.19c.75-1.43-1.25-3.21-2.36-1.82-2.77,3.47-2.92,8.26-5.84,11.6a39.46,39.46,0,0,1-5.27,4.73,17.69,17.69,0,0,1-5.91,3.38,17.45,17.45,0,0,1-7.51,0c-2.56-.38-5.12-.8-7.65-1.37-4.49-1-10-2.37-12.68-6.51a39.52,39.52,0,0,1-3-6.4,22,22,0,0,1-1.79-7.43,62.4,62.4,0,0,1,.46-7.73l.75-8c.23-2.55.44-5.12.72-7.67a13.38,13.38,0,0,1,1.82-6.11c1.27-1.87,3.43-2.83,5.48-3.61,2.31-.88,4.66-1.67,7-2.39a119,119,0,0,1,34.75-5.18,1.5,1.5,0,0,0,0-3Z"/><path class="cls-4" d="M627.09,404.58a149.89,149.89,0,0,0-42.54,8.74,12.56,12.56,0,0,0-4.61,2.48c-2.18,2.13-2.59,5.42-2.88,8.45l-.33,3.5a1,1,0,0,0,.13.78.94.94,0,0,0,.48.26c3.28,1.08,6.87.71,10.23-.12s6.59-2.1,10-2.83c3-.65,6.07-.86,9.1-1.38,6.6-1.11,12.92-3.65,19.58-4.35,1-.11,2.16-.28,2.63-1.16a2.66,2.66,0,0,0,.25-1.12,28.09,28.09,0,0,0-1.37-10,6.66,6.66,0,0,0-1-2.19,2.5,2.5,0,0,0-2-1.08"/><path class="cls-4" d="M627.09,403.08A153.54,153.54,0,0,0,598,407.61a142.66,142.66,0,0,0-14.18,4.4,12.85,12.85,0,0,0-5.15,3,11.13,11.13,0,0,0-2.54,5.4,59.22,59.22,0,0,0-.75,6.25,4,4,0,0,0,.23,2.63,4.06,4.06,0,0,0,2.68,1.3c4.67,1,9.35-.27,13.8-1.65a58.43,58.43,0,0,1,7.32-1.93c2.47-.44,5-.65,7.44-1.06,4.77-.79,9.37-2.32,14.08-3.4,1.37-.31,2.74-.59,4.12-.79a15.82,15.82,0,0,0,3.29-.55c2.51-.95,2.45-3.62,2.33-5.91a32.41,32.41,0,0,0-1.44-7.86c-.68-2.21-1.92-4.28-4.48-4.37-1.93-.06-1.93,2.94,0,3,1.55.05,2,3.53,2.24,4.62a24.64,24.64,0,0,1,.7,6.22c0,.85.1,1.39-.8,1.6s-1.92.25-2.87.39c-2.07.32-4.12.79-6.15,1.31-4,1-8,2.23-12.06,2.89-4.3.68-8.53,1.11-12.71,2.39-3.9,1.19-7.84,2.62-12,2.45-1,0-2-.39-2.92-.46-.34,0-.62-.43-.19.21s.13.26.26.06c.23-.35.12-1.31.17-1.75a38.73,38.73,0,0,1,.7-5.36,7.19,7.19,0,0,1,2.37-4.18,18.25,18.25,0,0,1,5.26-2.33q5.92-2.07,12-3.63a149.15,149.15,0,0,1,28.34-4.42c1.92-.11,1.93-3.11,0-3Z"/><path class="cls-6" d="M586.38,411.74c-1.6,5.9-3,12-2.49,18.14.16,1.91,3.17,1.92,3,0-.49-5.91.84-11.68,2.39-17.34a1.51,1.51,0,0,0-2.9-.8Z"/><path class="cls-6" d="M601.39,407.3c-1.37,5.91-.68,11.92.1,17.86a1.54,1.54,0,0,0,1.5,1.5c.73,0,1.61-.7,1.5-1.5-.74-5.64-1.51-11.45-.21-17.06.44-1.88-2.45-2.68-2.89-.8Z"/><path class="cls-6" d="M617.16,405q.75,8.36,2,16.66a1.51,1.51,0,0,0,1.85,1,1.53,1.53,0,0,0,1-1.84Q620.88,413,620.16,405a1.55,1.55,0,0,0-1.5-1.5,1.5,1.5,0,0,0-1.5,1.5Z"/><path class="cls-21" d="M582.29,459.66c.77-5.48,9.1-5.53,13-3.76,4.32,2,6.87,6.48,9.13,10.43,1,1.7,3.39.2,2.59-1.52-1-2.18-1.89-5.08-1.47-7.52.39-2.28,3.39-2,5.11-1.67a12.94,12.94,0,0,1,9.32,7.42l.24-1.82a23.79,23.79,0,0,1-29.87,5.18c-3.25-1.84-6.52-4.55-8-8.07a1.57,1.57,0,0,0-1.85-1.05,1.52,1.52,0,0,0-1.05,1.85c3.35,7.94,12.37,12.61,20.63,13.31a27,27,0,0,0,22.26-9.1,1.59,1.59,0,0,0,.24-1.82,15.79,15.79,0,0,0-13.32-9.07c-2.79-.15-5.84.82-6.56,3.85-.77,3.27.35,7.07,1.73,10l2.59-1.52c-2.82-4.94-6.2-10.34-11.92-12.18-5.33-1.72-14.68-.65-15.65,6.23a1.55,1.55,0,0,0,1,1.85,1.52,1.52,0,0,0,1.85-1Z"/><ellipse class="cls-4" cx="1386.51" cy="218.49" rx="369" ry="188"/><polygon class="cls-4" points="1044.9 256.74 915.58 375.73 1146.37 316.89 1044.9 256.74"/><text class="cls-22" transform="translate(1166.51 127.74) scale(0.55 1)">Ø<tspan class="cls-23" x="30.21" y="0">V</tspan><tspan x="62.61" y="0">! </tspan><tspan class="cls-24" x="87.79" y="0">D</tspan><tspan x="116.38" y="0">u nå</tspan><tspan class="cls-25" x="206.12" y="0">e</tspan><tspan x="230.91" y="0">de </tspan><tspan class="cls-26" x="290.22" y="0">i</tspan><tspan class="cls-27" x="303.81" y="0">k</tspan><tspan class="cls-26" x="333.53" y="0">k</tspan><tspan class="cls-28" x="362.79" y="0">e </tspan><tspan class="cls-29" x="398.04" y="0">a</tspan><tspan class="cls-30" x="425.4" y="0">t </tspan><tspan class="cls-31" x="459.53" y="0">s</tspan><tspan x="483.59" y="0">a</tspan><tspan class="cls-32" x="509.32" y="0">m</tspan><tspan class="cls-33" x="552.57" y="0">l</tspan><tspan x="565.22" y="0">e 20 </tspan><tspan class="cls-34" x="678.24" y="0">g</tspan><tspan class="cls-35" x="704.65" y="0">a</tspan><tspan class="cls-36" x="731.62" y="0">v</tspan><tspan class="cls-37" x="757.41" y="0">e</tspan><tspan class="cls-28" x="782.03" y="0">r</tspan></text><text class="cls-38" transform="translate(1082 197.5) scale(0.64 1)">Prøv <tspan class="cls-39" x="116.52" y="0">i</tspan><tspan class="cls-40" x="130.09" y="0">g</tspan><tspan class="cls-41" x="157.12" y="0">e</tspan><tspan x="183.79" y="0">n </tspan><tspan class="cls-42" x="228.23" y="0">o</tspan><tspan x="255.86" y="0">g </tspan><tspan class="cls-43" x="296.1" y="0">h</tspan><tspan x="325.71" y="0">jæ</tspan><tspan class="cls-44" x="377.96" y="0">l</tspan><tspan x="391.78" y="0">p </tspan><tspan class="cls-45" x="432.62" y="0">m</tspan><tspan class="cls-39" x="478.14" y="0">i</tspan><tspan class="cls-46" x="491.72" y="0">g m</tspan><tspan class="cls-47" x="575.2" y="0">e</tspan><tspan class="cls-46" x="601.81" y="0">d </tspan><tspan class="cls-48" x="642.65" y="0">a</tspan><tspan x="672.02" y="0">t r</tspan><tspan class="cls-47" x="731.48" y="0">e</tspan><tspan x="758.09" y="0">dde </tspan><tspan class="cls-49" x="847.58" y="0">j</tspan><tspan class="cls-50" x="861.87" y="0">u</tspan><tspan class="cls-39" x="888.78" y="0">l</tspan><tspan class="cls-41" x="902.35" y="0">e</tspan><tspan class="cls-51" x="929.02" y="0">n</tspan><tspan x="960.61" y="0">!</tspan></text></svg>